<mxfile host="Electron" agent="Mozilla/5.0 (Windows NT 10.0; Win64; x64) AppleWebKit/537.36 (KHTML, like Gecko) draw.io/24.7.17 Chrome/128.0.6613.36 Electron/32.0.1 Safari/537.36" version="24.7.17">
  <diagram name="Page-1" id="2YBvvXClWsGukQMizWep">
    <mxGraphModel dx="229" dy="153" grid="1" gridSize="10" guides="1" tooltips="1" connect="1" arrows="1" fold="1" page="1" pageScale="1" pageWidth="850" pageHeight="1100" math="0" shadow="0">
      <root>
        <mxCell id="0" />
        <mxCell id="1" parent="0" />
        <mxCell id="aM9ryv3xv72pqoxQDRHE-5" value=":API" style="shape=umlLifeline;perimeter=lifelinePerimeter;whiteSpace=wrap;html=1;container=0;dropTarget=0;collapsible=0;recursiveResize=0;outlineConnect=0;portConstraint=eastwest;newEdgeStyle={&quot;edgeStyle&quot;:&quot;elbowEdgeStyle&quot;,&quot;elbow&quot;:&quot;vertical&quot;,&quot;curved&quot;:0,&quot;rounded&quot;:0};" parent="1" vertex="1">
          <mxGeometry x="255" y="40" width="100" height="410" as="geometry" />
        </mxCell>
        <mxCell id="aM9ryv3xv72pqoxQDRHE-6" value="" style="html=1;points=[];perimeter=orthogonalPerimeter;outlineConnect=0;targetShapes=umlLifeline;portConstraint=eastwest;newEdgeStyle={&quot;edgeStyle&quot;:&quot;elbowEdgeStyle&quot;,&quot;elbow&quot;:&quot;vertical&quot;,&quot;curved&quot;:0,&quot;rounded&quot;:0};" parent="aM9ryv3xv72pqoxQDRHE-5" vertex="1">
          <mxGeometry x="45" y="90" width="10" height="300" as="geometry" />
        </mxCell>
        <mxCell id="zHk6kqTuQjxkQ_lVFr7E-27" value="return cached&lt;div&gt;version&lt;/div&gt;" style="html=1;align=left;spacingLeft=2;endArrow=block;rounded=0;edgeStyle=orthogonalEdgeStyle;curved=0;rounded=0;" edge="1" target="aM9ryv3xv72pqoxQDRHE-6" parent="aM9ryv3xv72pqoxQDRHE-5">
          <mxGeometry relative="1" as="geometry">
            <mxPoint x="55" y="311" as="sourcePoint" />
            <Array as="points">
              <mxPoint x="90" y="311" />
              <mxPoint x="90" y="337" />
            </Array>
            <mxPoint x="55" y="342" as="targetPoint" />
          </mxGeometry>
        </mxCell>
        <mxCell id="zHk6kqTuQjxkQ_lVFr7E-1" value=":Oracle" style="shape=umlLifeline;perimeter=lifelinePerimeter;whiteSpace=wrap;html=1;container=1;dropTarget=0;collapsible=0;recursiveResize=0;outlineConnect=0;portConstraint=eastwest;newEdgeStyle={&quot;curved&quot;:0,&quot;rounded&quot;:0};" vertex="1" parent="1">
          <mxGeometry x="625" y="40" width="100" height="410" as="geometry" />
        </mxCell>
        <mxCell id="zHk6kqTuQjxkQ_lVFr7E-12" value="" style="html=1;points=[[0,0,0,0,5],[0,1,0,0,-5],[1,0,0,0,5],[1,1,0,0,-5]];perimeter=orthogonalPerimeter;outlineConnect=0;targetShapes=umlLifeline;portConstraint=eastwest;newEdgeStyle={&quot;curved&quot;:0,&quot;rounded&quot;:0};" vertex="1" parent="zHk6kqTuQjxkQ_lVFr7E-1">
          <mxGeometry x="45" y="110" width="10" height="40" as="geometry" />
        </mxCell>
        <mxCell id="zHk6kqTuQjxkQ_lVFr7E-29" value="build &amp;amp;&amp;nbsp;&lt;div&gt;exec sql&lt;/div&gt;" style="html=1;align=left;spacingLeft=2;endArrow=block;rounded=0;edgeStyle=orthogonalEdgeStyle;curved=0;rounded=0;" edge="1" parent="zHk6kqTuQjxkQ_lVFr7E-1">
          <mxGeometry relative="1" as="geometry">
            <mxPoint x="55" y="117" as="sourcePoint" />
            <Array as="points">
              <mxPoint x="105" y="117" />
              <mxPoint x="105" y="137" />
            </Array>
            <mxPoint x="55" y="137" as="targetPoint" />
          </mxGeometry>
        </mxCell>
        <mxCell id="zHk6kqTuQjxkQ_lVFr7E-4" value=":ORDS" style="shape=umlLifeline;perimeter=lifelinePerimeter;whiteSpace=wrap;html=1;container=1;dropTarget=0;collapsible=0;recursiveResize=0;outlineConnect=0;portConstraint=eastwest;newEdgeStyle={&quot;curved&quot;:0,&quot;rounded&quot;:0};" vertex="1" parent="1">
          <mxGeometry x="400" y="40" width="100" height="410" as="geometry" />
        </mxCell>
        <mxCell id="zHk6kqTuQjxkQ_lVFr7E-11" value="" style="html=1;points=[[0,0,0,0,5],[0,1,0,0,-5],[1,0,0,0,5],[1,1,0,0,-5]];perimeter=orthogonalPerimeter;outlineConnect=0;targetShapes=umlLifeline;portConstraint=eastwest;newEdgeStyle={&quot;curved&quot;:0,&quot;rounded&quot;:0};" vertex="1" parent="zHk6kqTuQjxkQ_lVFr7E-4">
          <mxGeometry x="45" y="100" width="10" height="220" as="geometry" />
        </mxCell>
        <mxCell id="zHk6kqTuQjxkQ_lVFr7E-6" value="" style="shape=umlLifeline;perimeter=lifelinePerimeter;whiteSpace=wrap;html=1;container=1;dropTarget=0;collapsible=0;recursiveResize=0;outlineConnect=0;portConstraint=eastwest;newEdgeStyle={&quot;curved&quot;:0,&quot;rounded&quot;:0};participant=umlActor;" vertex="1" parent="1">
          <mxGeometry x="145" y="40" width="20" height="410" as="geometry" />
        </mxCell>
        <mxCell id="zHk6kqTuQjxkQ_lVFr7E-8" value="" style="html=1;points=[[0,0,0,0,5],[0,1,0,0,-5],[1,0,0,0,5],[1,1,0,0,-5]];perimeter=orthogonalPerimeter;outlineConnect=0;targetShapes=umlLifeline;portConstraint=eastwest;newEdgeStyle={&quot;curved&quot;:0,&quot;rounded&quot;:0};" vertex="1" parent="zHk6kqTuQjxkQ_lVFr7E-6">
          <mxGeometry x="5" y="80" width="10" height="310" as="geometry" />
        </mxCell>
        <mxCell id="zHk6kqTuQjxkQ_lVFr7E-9" value="get disputes" style="html=1;verticalAlign=bottom;endArrow=block;curved=0;rounded=0;" edge="1" parent="1" source="zHk6kqTuQjxkQ_lVFr7E-8">
          <mxGeometry x="0.0987" width="80" relative="1" as="geometry">
            <mxPoint x="170" y="130" as="sourcePoint" />
            <mxPoint x="300" y="130" as="targetPoint" />
            <Array as="points">
              <mxPoint x="245" y="130" />
            </Array>
            <mxPoint as="offset" />
          </mxGeometry>
        </mxCell>
        <mxCell id="zHk6kqTuQjxkQ_lVFr7E-10" value="GET /tco_disputes" style="html=1;verticalAlign=bottom;endArrow=block;curved=0;rounded=0;" edge="1" parent="1" source="aM9ryv3xv72pqoxQDRHE-6">
          <mxGeometry width="80" relative="1" as="geometry">
            <mxPoint x="305" y="140" as="sourcePoint" />
            <mxPoint x="444.9999999999998" y="140" as="targetPoint" />
          </mxGeometry>
        </mxCell>
        <mxCell id="zHk6kqTuQjxkQ_lVFr7E-13" value="&lt;code&gt;tco_rest_v2.tco_disputes_get&lt;/code&gt;" style="html=1;verticalAlign=bottom;endArrow=block;curved=0;rounded=0;" edge="1" parent="1" target="zHk6kqTuQjxkQ_lVFr7E-12">
          <mxGeometry width="80" relative="1" as="geometry">
            <mxPoint x="454.9999999999998" y="150" as="sourcePoint" />
            <mxPoint x="674.5" y="150" as="targetPoint" />
            <mxPoint as="offset" />
          </mxGeometry>
        </mxCell>
        <mxCell id="zHk6kqTuQjxkQ_lVFr7E-14" value="return sys_refcursor" style="html=1;verticalAlign=bottom;endArrow=open;dashed=1;endSize=8;curved=0;rounded=0;" edge="1" parent="1">
          <mxGeometry relative="1" as="geometry">
            <mxPoint x="669.9999999999998" y="186.66" as="sourcePoint" />
            <mxPoint x="454.9999999999998" y="186.66" as="targetPoint" />
            <Array as="points">
              <mxPoint x="595" y="186.66" />
            </Array>
          </mxGeometry>
        </mxCell>
        <mxCell id="zHk6kqTuQjxkQ_lVFr7E-16" value="compute response etag" style="html=1;align=left;spacingLeft=2;endArrow=block;rounded=0;edgeStyle=orthogonalEdgeStyle;curved=0;rounded=0;" edge="1" parent="1">
          <mxGeometry relative="1" as="geometry">
            <mxPoint x="455" y="204" as="sourcePoint" />
            <Array as="points">
              <mxPoint x="485" y="204" />
              <mxPoint x="485" y="224" />
            </Array>
            <mxPoint x="454.9999999999998" y="224.0344827586207" as="targetPoint" />
          </mxGeometry>
        </mxCell>
        <mxCell id="zHk6kqTuQjxkQ_lVFr7E-17" value="alt" style="shape=umlFrame;whiteSpace=wrap;html=1;pointerEvents=0;" vertex="1" parent="1">
          <mxGeometry x="75" y="247" width="405" height="150" as="geometry" />
        </mxCell>
        <mxCell id="zHk6kqTuQjxkQ_lVFr7E-18" value="[ if-non-match != etag ]" style="text;html=1;align=center;verticalAlign=middle;resizable=0;points=[];autosize=1;strokeColor=none;fillColor=none;" vertex="1" parent="1">
          <mxGeometry x="155" y="247" width="140" height="30" as="geometry" />
        </mxCell>
        <mxCell id="zHk6kqTuQjxkQ_lVFr7E-19" value="200 OK" style="html=1;verticalAlign=bottom;endArrow=open;dashed=1;endSize=8;curved=0;rounded=0;" edge="1" parent="1">
          <mxGeometry relative="1" as="geometry">
            <mxPoint x="444.9999999999998" y="284" as="sourcePoint" />
            <mxPoint x="310" y="284" as="targetPoint" />
          </mxGeometry>
        </mxCell>
        <mxCell id="zHk6kqTuQjxkQ_lVFr7E-21" value="" style="endArrow=none;dashed=1;html=1;rounded=0;" edge="1" parent="1">
          <mxGeometry width="50" height="50" relative="1" as="geometry">
            <mxPoint x="60" y="300" as="sourcePoint" />
            <mxPoint x="470" y="300" as="targetPoint" />
          </mxGeometry>
        </mxCell>
        <mxCell id="zHk6kqTuQjxkQ_lVFr7E-22" value="[ else ]" style="text;html=1;align=center;verticalAlign=middle;resizable=0;points=[];autosize=1;strokeColor=none;fillColor=none;" vertex="1" parent="1">
          <mxGeometry x="155" y="298" width="60" height="30" as="geometry" />
        </mxCell>
        <mxCell id="zHk6kqTuQjxkQ_lVFr7E-23" value="304 Not Modified" style="html=1;verticalAlign=bottom;endArrow=open;dashed=1;endSize=8;curved=0;rounded=0;" edge="1" parent="1">
          <mxGeometry relative="1" as="geometry">
            <mxPoint x="445" y="334.66" as="sourcePoint" />
            <mxPoint x="310" y="334.66" as="targetPoint" />
          </mxGeometry>
        </mxCell>
        <mxCell id="zHk6kqTuQjxkQ_lVFr7E-24" value="200 OK" style="html=1;verticalAlign=bottom;endArrow=open;dashed=1;endSize=8;curved=0;rounded=0;" edge="1" parent="1">
          <mxGeometry relative="1" as="geometry">
            <mxPoint x="300" y="422" as="sourcePoint" />
            <mxPoint x="160" y="422" as="targetPoint" />
          </mxGeometry>
        </mxCell>
      </root>
    </mxGraphModel>
  </diagram>
</mxfile>
